<svg xmlns="http://www.w3.org/2000/svg" width="261.717" height="292.382" viewBox="0 0 261.717 292.382">
  <g id="user" transform="translate(-24.165)">
    <g id="Group_472" data-name="Group 472" transform="translate(79.13)">
      <g id="Group_471" data-name="Group 471">
        <path id="Path_866" data-name="Path 866" d="M186.7,0a75.913,75.913,0,1,0,75.913,75.913A76.115,76.115,0,0,0,186.7,0Z" transform="translate(-110.791)" fill="#747474"/>
      </g>
    </g>
    <g id="Group_474" data-name="Group 474" transform="translate(24.165 157.257)">
      <g id="Group_473" data-name="Group 473">
        <path id="Path_867" data-name="Path 867" d="M285.322,303.074a70.77,70.77,0,0,0-7.624-13.923c-15.249-22.542-38.785-37.46-65.3-41.106a13.973,13.973,0,0,0-9.613,2.32,80.918,80.918,0,0,1-95.472,0,12.438,12.438,0,0,0-9.613-2.32,93.675,93.675,0,0,0-65.3,41.106,81.6,81.6,0,0,0-7.624,13.923,7.05,7.05,0,0,0,.331,6.3,132.257,132.257,0,0,0,8.95,13.26A125.98,125.98,0,0,0,49.3,339.871a198.691,198.691,0,0,0,15.249,13.26,151.171,151.171,0,0,0,180.335,0,145.752,145.752,0,0,0,15.249-13.26,153.078,153.078,0,0,0,15.249-17.238,116.226,116.226,0,0,0,8.95-13.26A5.657,5.657,0,0,0,285.322,303.074Z" transform="translate(-24.165 -247.841)" fill="#747474"/>
      </g>
    </g>
  </g>
</svg>
