<svg xmlns="http://www.w3.org/2000/svg" width="44" height="44" viewBox="0 0 44 44">
  <g id="Group_447" data-name="Group 447" transform="translate(0 -0.319)">
    <circle id="Ellipse_89" data-name="Ellipse 89" cx="22" cy="22" r="22" transform="translate(0 0.319)" fill="none"/>
    <path id="Path_824" data-name="Path 824" d="M63.855,16.916,51.942,25.745l2.214-5.2Z" transform="translate(-27.974 -9.17)" fill="#e17726"/>
    <path id="Path_825" data-name="Path 825" d="M18.266,16.916l11.8,8.911-2.107-5.286Z" transform="translate(-9.837 -9.17)" fill="#e27625"/>
    <path id="Path_826" data-name="Path 826" d="M64.778,61.281l-3.167,4.852L68.392,68l1.93-6.617Z" transform="translate(-33.182 -33.063)" fill="#e27625"/>
    <path id="Path_827" data-name="Path 827" d="M15.536,61.386,17.454,68l6.781-1.867-3.155-4.85Z" transform="translate(-8.367 -33.063)" fill="#e27625"/>
    <path id="Path_828" data-name="Path 828" d="M31.386,38.758l-1.9,2.849,6.722.306-.234-7.241Z" transform="translate(-15.882 -18.733)" fill="#e27625"/>
    <path id="Path_829" data-name="Path 829" d="M56.78,38.661l-4.673-4.172-.165,7.323,6.722-.306Z" transform="translate(-27.974 -18.637)" fill="#e27625"/>
    <path id="Path_830" data-name="Path 830" d="M34.389,66.31l4.049-1.967L34.95,61.613Z" transform="translate(-18.521 -33.242)" fill="#e27625"/>
    <path id="Path_831" data-name="Path 831" d="M52.834,64.344l4.049,1.967-.565-4.7Z" transform="translate(-28.455 -33.242)" fill="#e27625"/>
    <path id="Path_832" data-name="Path 832" d="M56.884,69.5l-4.049-1.967.317,2.635-.035,1.107Z" transform="translate(-28.455 -36.43)" fill="#d5bfb2"/>
    <path id="Path_833" data-name="Path 833" d="M34.389,69.5l3.767,1.778-.022-1.107.306-2.635Z" transform="translate(-18.521 -36.43)" fill="#d5bfb2"/>
    <path id="Path_834" data-name="Path 834" d="M38.776,55.405l-3.366-.988,2.378-1.1Z" transform="translate(-19.071 -28.777)" fill="#233447"/>
    <path id="Path_835" data-name="Path 835" d="M53.294,55.405l.988-2.086,2.4,1.1Z" transform="translate(-28.702 -28.777)" fill="#233447"/>
    <path id="Path_836" data-name="Path 836" d="M30.707,66.133l.589-4.85-3.743.11Z" transform="translate(-14.838 -33.063)" fill="#cc6228"/>
    <path id="Path_837" data-name="Path 837" d="M60.335,61.281l.589,4.85,3.167-4.744Z" transform="translate(-32.494 -33.063)" fill="#cc6228"/>
    <path id="Path_838" data-name="Path 838" d="M58.664,49.7l-6.722.306.624,3.449.988-2.086,2.4,1.1Z" transform="translate(-27.974 -26.825)" fill="#cc6228"/>
    <path id="Path_839" data-name="Path 839" d="M32.222,52.465l2.378-1.1.988,2.086L36.212,50l-6.721-.3Z" transform="translate(-15.882 -26.825)" fill="#cc6228"/>
    <path id="Path_840" data-name="Path 840" d="M29.491,49.7l2.825,5.5-.094-2.731Z" transform="translate(-15.882 -26.825)" fill="#e27525"/>
    <path id="Path_841" data-name="Path 841" d="M60.5,52.465,60.386,55.2l2.825-5.5Z" transform="translate(-32.522 -26.825)" fill="#e27525"/>
    <path id="Path_842" data-name="Path 842" d="M43.331,50.362l-.625,3.446.788,4.074.165-5.368Z" transform="translate(-23 -27.183)" fill="#e27525"/>
    <path id="Path_843" data-name="Path 843" d="M51.57,50.362,51.253,52.5l.153,5.38.788-4.074Z" transform="translate(-27.603 -27.183)" fill="#e27525"/>
    <path id="Path_844" data-name="Path 844" d="M52.37,56.683l-.788,4.074.576.4,3.485-2.731.117-2.731Z" transform="translate(-27.782 -30.054)" fill="#f5841f"/>
    <path id="Path_845" data-name="Path 845" d="M35.41,55.694l.094,2.731,3.485,2.731.576-.4-.788-4.074Z" transform="translate(-19.071 -30.054)" fill="#f5841f"/>
    <path id="Path_846" data-name="Path 846" d="M43.185,73.57l.033-1.11-.294-.259H38.415l-.281.259.023,1.107L34.39,71.789l1.318,1.083L38.38,74.72h4.58l2.673-1.848,1.318-1.083Z" transform="translate(-18.521 -38.725)" fill="#c0ac9d"/>
    <path id="Path_847" data-name="Path 847" d="M47.269,67.065l-.576-.4H43.385l-.576.4L42.5,69.7l.282-.259h4.508l.294.259Z" transform="translate(-22.89 -35.962)" fill="#161616"/>
    <path id="Path_848" data-name="Path 848" d="M64.831,26.322l1-4.874-1.5-4.533-11.5,8.536L57.261,29.2,63.5,31.021l1.375-1.615-.6-.439.965-.871-.73-.576.953-.718Z" transform="translate(-28.455 -9.17)" fill="#763e1a"/>
    <path id="Path_849" data-name="Path 849" d="M15,21.447l1.012,4.874-.648.483.953.718-.73.576.965.871-.6.439,1.377,1.613L23.582,29.2,28,25.453,16.506,16.916Z" transform="translate(-8.078 -9.17)" fill="#763e1a"/>
    <path id="Path_850" data-name="Path 850" d="M67.567,45.35l-6.239-1.825,1.883,2.849-2.825,5.5,3.733-.047h5.545Z" transform="translate(-32.522 -23.5)" fill="#f5841f"/>
    <path id="Path_851" data-name="Path 851" d="M23.871,43.525,17.62,45.35l-2.086,6.478h5.545l3.72.047-2.824-5.5Z" transform="translate(-8.367 -23.5)" fill="#f5841f"/>
    <path id="Path_852" data-name="Path 852" d="M45.113,36.581l.412-6.9,1.8-4.909H39.262l1.8,4.909.412,6.9.153,2.166.012,5.356h3.308l.012-5.356Z" transform="translate(-21.145 -13.402)" fill="#f5841f"/>
  </g>
</svg>
