<svg id="trust_logotype" xmlns="http://www.w3.org/2000/svg" xmlns:xlink="http://www.w3.org/1999/xlink" width="163.374" height="38" viewBox="0 0 163.374 38">
  <defs>
    <clipPath id="clip-path">
      <rect id="Rectangle_214" data-name="Rectangle 214" width="38" height="38" fill="#fff"/>
    </clipPath>
  </defs>
  <g id="Group_781" data-name="Group 781" clip-path="url(#clip-path)">
    <path id="Path_1003" data-name="Path 1003" d="M1.294,6.484C0,9.025,0,12.35,0,19s0,9.975,1.294,12.516a11.909,11.909,0,0,0,5.189,5.189C9.025,38,12.35,38,19,38s9.975,0,12.516-1.294a11.909,11.909,0,0,0,5.189-5.189C38,28.975,38,25.65,38,19s0-9.975-1.294-12.516a11.909,11.909,0,0,0-5.189-5.189C28.975,0,25.65,0,19,0S9.025,0,6.484,1.294A11.91,11.91,0,0,0,1.294,6.484Zm27.188,3.764A1.237,1.237,0,0,1,29.717,11.5c-.059,3.539-.2,6.246-.451,8.39a17.542,17.542,0,0,1-1.187,5.023,7.951,7.951,0,0,1-1.4,2.179,10.9,10.9,0,0,1-2.517,1.936c-.4.237-.808.471-1.24.716-.921.523-1.935,1.1-3.083,1.867a1.228,1.228,0,0,1-1.372,0c-1.166-.777-2.192-1.36-3.122-1.887l-.606-.345a13.2,13.2,0,0,1-2.921-2.1,7.449,7.449,0,0,1-1.455-2.09A14.646,14.646,0,0,1,9.2,21.025,72.77,72.77,0,0,1,8.6,11.5a1.237,1.237,0,0,1,.35-.885,1.259,1.259,0,0,1,.885-.368h.511A12.944,12.944,0,0,0,18.394,7.76a1.239,1.239,0,0,1,1.514,0,12.949,12.949,0,0,0,8.057,2.488ZM25.721,24.124a12.345,12.345,0,0,0,.95-3.473,64.962,64.962,0,0,0,.552-7.944,15.157,15.157,0,0,1-8.069-2.452,15.262,15.262,0,0,1-8.063,2.452c.065,2.886.2,5.13.4,6.893a15.43,15.43,0,0,0,1,4.322,5.28,5.28,0,0,0,.956,1.5,8.48,8.48,0,0,0,1.965,1.5c.352.211.741.431,1.163.67.753.426,1.615.914,2.577,1.527.944-.6,1.794-1.085,2.538-1.508q.337-.191.644-.368a11.109,11.109,0,0,0,2.393-1.68A5.254,5.254,0,0,0,25.721,24.124Z" fill="#3375bb" fill-rule="evenodd"/>
  </g>
  <g id="Group_782" data-name="Group 782">
    <path id="Path_1004" data-name="Path 1004" d="M53.332,15.208H49.076V12.7h11.59v2.508H56.41V26H53.332Zm10.819,1.919a3.3,3.3,0,0,1,1.425-1.121,5.4,5.4,0,0,1,2.09-.38v2.736q-.494-.038-.665-.038a2.7,2.7,0,0,0-2,.722,2.846,2.846,0,0,0-.722,2.128V26H61.32V15.778h2.831Zm15.08-1.349V26H76.419V24.784a4.035,4.035,0,0,1-1.406,1.026,4.53,4.53,0,0,1-1.767.342,4.353,4.353,0,0,1-3.192-1.159,4.62,4.62,0,0,1-1.178-3.439V15.778H71.84v5.339q0,2.47,2.071,2.47a2.242,2.242,0,0,0,1.71-.684,2.962,2.962,0,0,0,.646-2.071V15.778Zm5.615,10.374a10.222,10.222,0,0,1-2.489-.3,6.664,6.664,0,0,1-1.938-.8l.988-2.128a6.434,6.434,0,0,0,1.653.722,7.16,7.16,0,0,0,1.9.266q1.881,0,1.881-.931a.659.659,0,0,0-.513-.627,7.6,7.6,0,0,0-1.577-.323,15.214,15.214,0,0,1-2.071-.437,3.281,3.281,0,0,1-1.425-.874,2.51,2.51,0,0,1-.589-1.786,2.789,2.789,0,0,1,.551-1.71,3.645,3.645,0,0,1,1.634-1.178,7.056,7.056,0,0,1,2.546-.418,9.462,9.462,0,0,1,2.147.247,5.86,5.86,0,0,1,1.786.646l-.988,2.109a5.9,5.9,0,0,0-2.945-.76,3,3,0,0,0-1.425.266.782.782,0,0,0-.475.684.679.679,0,0,0,.513.665,9.079,9.079,0,0,0,1.634.361A16.073,16.073,0,0,1,87.7,20.3a3.01,3.01,0,0,1,1.387.855,2.453,2.453,0,0,1,.589,1.748,2.7,2.7,0,0,1-.57,1.691,3.7,3.7,0,0,1-1.672,1.159A7.485,7.485,0,0,1,84.846,26.152Zm12.678-.646A3.168,3.168,0,0,1,96.441,26a5.631,5.631,0,0,1-1.33.152,4.015,4.015,0,0,1-2.831-.931,3.582,3.582,0,0,1-.988-2.736v-4.2H89.715v-2.28h1.577V13.517h2.964v2.489H96.8v2.28H94.256v4.161a1.458,1.458,0,0,0,.323,1.007,1.284,1.284,0,0,0,.95.342,1.9,1.9,0,0,0,1.2-.38ZM123.739,12.7,119.388,26h-3.306l-2.926-9.006L110.135,26h-3.287l-4.37-13.3h3.192l3,9.348,3.135-9.348h2.85l3.04,9.424,3.1-9.424Zm4.3,2.926a5.292,5.292,0,0,1,3.648,1.14,4.3,4.3,0,0,1,1.273,3.4V26h-2.774V24.727a3.3,3.3,0,0,1-3.116,1.425,4.9,4.9,0,0,1-2.052-.4,3.054,3.054,0,0,1-1.311-1.1,2.868,2.868,0,0,1-.456-1.6,2.673,2.673,0,0,1,1.064-2.242A5.515,5.515,0,0,1,127.642,20H130a1.858,1.858,0,0,0-.589-1.482,2.564,2.564,0,0,0-1.767-.532,5.077,5.077,0,0,0-1.615.266,4.123,4.123,0,0,0-1.33.684l-1.064-2.071a6.422,6.422,0,0,1,1.995-.912A9.085,9.085,0,0,1,128.041,15.626Zm-.228,8.531a2.637,2.637,0,0,0,1.349-.342A1.968,1.968,0,0,0,130,22.77V21.725h-2.033q-1.824,0-1.824,1.2a1.1,1.1,0,0,0,.437.912A2.1,2.1,0,0,0,127.813,24.157ZM135.075,11.9h2.964V26h-2.964Zm5.144,0h2.964V26h-2.964Zm15.158,9.025q0,.057-.057.8h-7.733a2.412,2.412,0,0,0,.988,1.5,3.276,3.276,0,0,0,1.938.551,3.99,3.99,0,0,0,1.406-.228,3.524,3.524,0,0,0,1.159-.76l1.577,1.71a5.3,5.3,0,0,1-4.218,1.653,6.755,6.755,0,0,1-3.059-.665,5.016,5.016,0,0,1-2.052-1.881,5.16,5.16,0,0,1-.722-2.717,5.234,5.234,0,0,1,.7-2.7,4.994,4.994,0,0,1,1.957-1.881,6.041,6.041,0,0,1,5.51-.038,4.635,4.635,0,0,1,1.9,1.862A5.41,5.41,0,0,1,155.377,20.927Zm-5.3-3.059a2.553,2.553,0,0,0-1.691.57A2.429,2.429,0,0,0,147.549,20h5.035a2.41,2.41,0,0,0-.836-1.539A2.473,2.473,0,0,0,150.076,17.868Zm13.3,7.638a3.18,3.18,0,0,1-1.083.494,5.636,5.636,0,0,1-1.33.152,4.014,4.014,0,0,1-2.831-.931,3.581,3.581,0,0,1-.988-2.736v-4.2h-1.577v-2.28h1.577V13.517h2.964v2.489h2.546v2.28h-2.546v4.161a1.454,1.454,0,0,0,.323,1.007,1.283,1.283,0,0,0,.95.342,1.908,1.908,0,0,0,1.2-.38Z" fill="#3375bb"/>
  </g>
</svg>
