<svg xmlns="http://www.w3.org/2000/svg" width="260.667" height="109" viewBox="0 0 260.667 109">
  <g id="Group_729" data-name="Group 729" transform="translate(-415 -280)">
    <rect id="Rectangle_196" data-name="Rectangle 196" width="46" height="13" rx="6.5" transform="translate(557 280)" fill="#fee3e3"/>
    <rect id="Rectangle_197" data-name="Rectangle 197" width="58" height="13" rx="6.5" transform="translate(562 301)" fill="#fee3e3"/>
    <rect id="Rectangle_200" data-name="Rectangle 200" width="148" height="13" rx="6.5" transform="translate(493 326)" fill="#fee3e3"/>
    <rect id="Rectangle_201" data-name="Rectangle 201" width="125" height="13" rx="6.5" transform="translate(503 349)" fill="#fee3e3"/>
    <rect id="Rectangle_202" data-name="Rectangle 202" width="134" height="13" rx="6.5" transform="translate(443 353)" fill="#fee3e3"/>
    <rect id="Rectangle_203" data-name="Rectangle 203" width="140" height="13" rx="6.5" transform="translate(415 376)" fill="#fee3e3"/>
    <rect id="Rectangle_204" data-name="Rectangle 204" width="110" height="18" rx="7" transform="translate(463 365)" fill="#fee3e3"/>
    <rect id="Rectangle_205" data-name="Rectangle 205" width="92" height="13" rx="6.5" transform="translate(505 337)" fill="#fee3e3"/>
    <rect id="Rectangle_198" data-name="Rectangle 198" width="14" height="10" rx="5" transform="translate(608 285)" fill="#fee3e3"/>
    <rect id="Rectangle_206" data-name="Rectangle 206" width="14" height="10" rx="5" transform="translate(654 332)" fill="#fee3e3"/>
    <rect id="Rectangle_199" data-name="Rectangle 199" width="18" height="13" rx="6.5" transform="translate(583 288) rotate(90)" fill="#fee3e3"/>
    <g id="Ellipse_139" data-name="Ellipse 139" transform="translate(507 294)" fill="none" stroke="#c84a30" stroke-width="2">
      <circle cx="6.5" cy="6.5" r="6.5" stroke="none"/>
      <circle cx="6.5" cy="6.5" r="5.5" fill="none"/>
    </g>
    <path id="bx-plus" d="M13.667,8.715H9.953V5H8.714V8.715H5V9.954H8.714v3.715H9.953V9.954h3.714Z" transform="translate(662 309)" fill="#b64d34"/>
    <g id="error" transform="translate(504 325)">
      <g id="Group_746" data-name="Group 746">
        <g id="Group_745" data-name="Group 745">
          <path id="Path_971" data-name="Path 971" d="M31.794,0A31.794,31.794,0,1,0,63.588,31.794,31.82,31.82,0,0,0,31.794,0Zm0,60.379A28.585,28.585,0,1,1,60.379,31.794,28.635,28.635,0,0,1,31.794,60.379Z" fill="#c84a30"/>
        </g>
      </g>
      <g id="Group_748" data-name="Group 748" transform="translate(19.778 19.629)">
        <g id="Group_747" data-name="Group 747">
          <path id="Path_972" data-name="Path 972" d="M120.255,117.216l9.329-9.329a1.583,1.583,0,0,0-2.239-2.239l-9.329,9.329-9.329-9.329a1.583,1.583,0,0,0-2.239,2.239l9.329,9.329-9.329,9.255a1.623,1.623,0,0,0,0,2.239,1.623,1.623,0,0,0,2.239,0l9.329-9.329,9.329,9.329a1.623,1.623,0,0,0,2.239,0,1.623,1.623,0,0,0,0-2.239Z" transform="translate(-106 -105.2)" fill="#c84a30"/>
        </g>
      </g>
    </g>
    <g id="Ellipse_141" data-name="Ellipse 141" transform="translate(607 369)" fill="none" stroke="#c84a30" stroke-width="2" opacity="0.628">
      <circle cx="5.5" cy="5.5" r="5.5" stroke="none"/>
      <circle cx="5.5" cy="5.5" r="4.5" fill="none"/>
    </g>
  </g>
</svg>
