<svg xmlns="http://www.w3.org/2000/svg" width="260.667" height="109" viewBox="0 0 260.667 109">
  <g id="Group_730" data-name="Group 730" transform="translate(-415 -353)">
    <g id="Group_729" data-name="Group 729" transform="translate(0 73)">
      <rect id="Rectangle_196" data-name="Rectangle 196" width="46" height="13" rx="6.5" transform="translate(557 280)" fill="#fff6e7"/>
      <rect id="Rectangle_197" data-name="Rectangle 197" width="58" height="13" rx="6.5" transform="translate(562 301)" fill="#fff6e7"/>
      <rect id="Rectangle_200" data-name="Rectangle 200" width="148" height="13" rx="6.5" transform="translate(493 326)" fill="#fff6e7"/>
      <rect id="Rectangle_201" data-name="Rectangle 201" width="125" height="13" rx="6.5" transform="translate(503 349)" fill="#fff6e7"/>
      <rect id="Rectangle_202" data-name="Rectangle 202" width="134" height="13" rx="6.5" transform="translate(443 353)" fill="#fff6e7"/>
      <rect id="Rectangle_203" data-name="Rectangle 203" width="140" height="13" rx="6.5" transform="translate(415 376)" fill="#fff6e7"/>
      <rect id="Rectangle_204" data-name="Rectangle 204" width="110" height="18" rx="7" transform="translate(463 365)" fill="#fff6e7"/>
      <rect id="Rectangle_205" data-name="Rectangle 205" width="92" height="13" rx="6.5" transform="translate(505 337)" fill="#fff6e7"/>
      <rect id="Rectangle_198" data-name="Rectangle 198" width="14" height="10" rx="5" transform="translate(608 285)" fill="#fff6e7"/>
      <rect id="Rectangle_206" data-name="Rectangle 206" width="14" height="10" rx="5" transform="translate(654 332)" fill="#fff6e7"/>
      <rect id="Rectangle_199" data-name="Rectangle 199" width="18" height="13" rx="6.5" transform="translate(583 288) rotate(90)" fill="#fff6e7"/>
    </g>
    <g id="Ellipse_139" data-name="Ellipse 139" transform="translate(507 367)" fill="none" stroke="#fbc138" stroke-width="2">
      <circle cx="6.5" cy="6.5" r="6.5" stroke="none"/>
      <circle cx="6.5" cy="6.5" r="5.5" fill="none"/>
    </g>
    <path id="bx-plus" d="M13.667,8.715H9.953V5H8.714V8.715H5V9.954H8.714v3.715H9.953V9.954h3.714Z" transform="translate(662 382)" fill="#fbc138"/>
    <g id="alert" transform="translate(505 366.685)">
      <g id="Group_736" data-name="Group 736" transform="translate(0 26.315)">
        <g id="Group_735" data-name="Group 735" transform="translate(0 0)">
          <path id="Path_969" data-name="Path 969" d="M71.517,78.7,43.738,30.588a8.546,8.546,0,0,0-14.8,0L1.158,78.7a8.546,8.546,0,0,0,7.4,12.819H64.116a8.546,8.546,0,0,0,7.4-12.818Zm-3.687,6.417a4.244,4.244,0,0,1-3.714,2.144H8.559A4.288,4.288,0,0,1,4.846,80.83L32.624,32.717a4.288,4.288,0,0,1,7.427,0L67.829,80.83A4.245,4.245,0,0,1,67.829,85.118Z" transform="translate(0 -26.315)" fill="#fbc138"/>
        </g>
      </g>
      <g id="Group_738" data-name="Group 738" transform="translate(34.208 47.563)">
        <g id="Group_737" data-name="Group 737" transform="translate(0 0)">
          <rect id="Rectangle_209" data-name="Rectangle 209" width="4.258" height="21.289" fill="#fbc138"/>
        </g>
      </g>
      <g id="Group_740" data-name="Group 740" transform="translate(33.499 73.11)">
        <g id="Group_739" data-name="Group 739" transform="translate(0 0)">
          <path id="Path_970" data-name="Path 970" d="M238.841,355.99a2.839,2.839,0,1,0,2.839,2.839A2.842,2.842,0,0,0,238.841,355.99Z" transform="translate(-236.002 -355.99)" fill="#fbc138"/>
        </g>
      </g>
    </g>
  </g>
</svg>
