<svg xmlns="http://www.w3.org/2000/svg" width="49.907" height="54.446" viewBox="0 0 49.907 54.446">
  <g id="discord" transform="translate(-1)">
    <rect id="Rectangle_148" data-name="Rectangle 148" width="38" height="35" transform="translate(8 6)" fill="#fff"/>
    <path id="Path_872" data-name="Path 872" d="M6.853,48.083H39.2l-1.545-5c.229.2,13.252,11.363,13.252,11.363V5.614A6.021,6.021,0,0,0,44.9,0L6.864.007A5.791,5.791,0,0,0,1,5.626v36.84a5.677,5.677,0,0,0,5.853,5.617ZM30.781,12.892l-.075.027.027-.027ZM13.47,15.77a14,14,0,0,1,8.012-2.881l.311.306c-5.088,1.214-7.4,3.487-7.4,3.487a25.758,25.758,0,0,1,22.959.15,18.658,18.658,0,0,0-7.087-3.487l.422-.415a14.007,14.007,0,0,1,7.892,2.858,35.018,35.018,0,0,1,4.183,15.925,12.089,12.089,0,0,1-8.917,3.915s-1.071-1.211-1.833-2.268A9.162,9.162,0,0,0,37.1,30.175c-7.2,4.532-13.506,3.825-21.054.762a.175.175,0,0,1-.138-.068v-.014a.182.182,0,0,0-.138-.068h-.136a7.665,7.665,0,0,0-.771-.454A9.105,9.105,0,0,0,19.8,33.518c-.932,1.064-1.856,2.273-1.856,2.273-6.32-.15-8.625-4.1-8.625-4.1A35.1,35.1,0,0,1,13.47,15.77Z" fill="#5a577e"/>
    <path id="Path_873" data-name="Path 873" d="M15.944,16.164a3.036,3.036,0,0,0,0-6.068v0a3.033,3.033,0,0,0,0,6.061Z" transform="translate(15.245 12.807)" fill="#5a577e"/>
    <path id="Path_874" data-name="Path 874" d="M11.326,16.164a3.036,3.036,0,0,0,.009-6.068l-.009.007a3.033,3.033,0,0,0,0,6.061Z" transform="translate(9.387 12.807)" fill="#5a577e"/>
  </g>
</svg>
