<svg xmlns="http://www.w3.org/2000/svg" width="24" height="24" viewBox="0 0 24 24">
  <g id="Group_771" data-name="Group 771" transform="translate(-400 -1363)">
    <circle id="Ellipse_131" data-name="Ellipse 131" cx="12" cy="12" r="12" transform="translate(400 1363)" fill="#5a577e"/>
    <g id="bxl-instagram" transform="translate(404.868 1367.529)">
      <path id="Path_954" data-name="Path 954" d="M11.029,7.377a3.654,3.654,0,1,0,3.654,3.654,3.654,3.654,0,0,0-3.654-3.654Zm0,6.027A2.374,2.374,0,1,1,13.4,11.03,2.374,2.374,0,0,1,11.029,13.4Z" transform="translate(-3.919 -3.922)" fill="#fefdff"/>
      <circle id="Ellipse_119" data-name="Ellipse 119" cx="0.852" cy="0.852" r="0.852" transform="translate(10.056 2.469)" fill="#fefdff"/>
      <path id="Path_955" data-name="Path 955" d="M16.856,5.459a3.639,3.639,0,0,0-2.081-2.08,5.22,5.22,0,0,0-1.727-.332c-.761-.033-1-.043-2.932-.043s-2.177,0-2.932.043a5.179,5.179,0,0,0-1.726.332,3.635,3.635,0,0,0-2.081,2.08,5.2,5.2,0,0,0-.331,1.727c-.034.76-.044,1-.044,2.932s0,2.176.044,2.932a5.212,5.212,0,0,0,.331,1.728,3.643,3.643,0,0,0,2.081,2.08,5.2,5.2,0,0,0,1.727.356c.761.033,1,.043,2.932.043s2.177,0,2.932-.043a5.227,5.227,0,0,0,1.727-.331A3.645,3.645,0,0,0,16.857,14.8a5.2,5.2,0,0,0,.331-1.727c.034-.76.044-1,.044-2.932s0-2.176-.044-2.932a5.2,5.2,0,0,0-.332-1.75Zm-.963,7.532a3.985,3.985,0,0,1-.246,1.334,2.36,2.36,0,0,1-1.353,1.352,3.939,3.939,0,0,1-1.32.246c-.751.035-.963.043-2.888.043s-2.123,0-2.888-.043a3.92,3.92,0,0,1-1.319-.246,2.359,2.359,0,0,1-1.358-1.352,4.014,4.014,0,0,1-.246-1.319c-.034-.751-.042-.963-.042-2.888s0-2.123.042-2.888A3.981,3.981,0,0,1,4.522,5.9,2.36,2.36,0,0,1,5.88,4.545,3.959,3.959,0,0,1,7.2,4.3c.752-.034.963-.043,2.888-.043s2.123,0,2.888.043a3.92,3.92,0,0,1,1.32.246A2.364,2.364,0,0,1,15.647,5.9a4.014,4.014,0,0,1,.246,1.319c.034.752.043.963.043,2.888s0,2.132-.034,2.888h-.009Z" transform="translate(-3.002 -3.005)" fill="#fefdff"/>
    </g>
  </g>
</svg>
