<svg xmlns="http://www.w3.org/2000/svg" width="40" height="40" viewBox="0 0 40 40">
  <g id="Group_447" data-name="Group 447" transform="translate(0 -0.319)">
    <circle id="Ellipse_89" data-name="Ellipse 89" cx="20" cy="20" r="20" transform="translate(0 0.319)" fill="#fff"/>
    <path id="Path_824" data-name="Path 824" d="M62.792,16.916l-10.85,8.041,2.016-4.739Z" transform="translate(-30.113 -9.833)" fill="#e17726"/>
    <path id="Path_825" data-name="Path 825" d="M18.266,16.916l10.743,8.116L27.09,20.218Z" transform="translate(-10.589 -9.833)" fill="#e27625"/>
    <path id="Path_826" data-name="Path 826" d="M64.495,61.281,61.611,65.7l6.176,1.7,1.758-6.026Z" transform="translate(-35.719 -35.553)" fill="#e27625"/>
    <path id="Path_827" data-name="Path 827" d="M15.536,61.377,17.283,67.4l6.176-1.7-2.873-4.417Z" transform="translate(-9.007 -35.553)" fill="#e27625"/>
    <path id="Path_828" data-name="Path 828" d="M31.217,38.393l-1.726,2.595,6.122.279L35.4,34.672Z" transform="translate(-17.097 -20.127)" fill="#e27625"/>
    <path id="Path_829" data-name="Path 829" d="M56.348,38.289l-4.256-3.8-.15,6.669,6.122-.279Z" transform="translate(-30.113 -20.023)" fill="#e27625"/>
    <path id="Path_830" data-name="Path 830" d="M34.389,65.891,38.077,64.1,34.9,61.613Z" transform="translate(-19.937 -35.746)" fill="#e27625"/>
    <path id="Path_831" data-name="Path 831" d="M52.834,64.1l3.688,1.791-.515-4.278Z" transform="translate(-30.631 -35.746)" fill="#e27625"/>
    <path id="Path_832" data-name="Path 832" d="M56.523,69.322l-3.688-1.791.289,2.4-.032,1.008Z" transform="translate(-30.631 -39.177)" fill="#d5bfb2"/>
    <path id="Path_833" data-name="Path 833" d="M34.389,69.322l3.431,1.619L37.8,69.933l.279-2.4Z" transform="translate(-19.937 -39.177)" fill="#d5bfb2"/>
    <path id="Path_834" data-name="Path 834" d="M38.476,55.219l-3.066-.9,2.166-1Z" transform="translate(-20.529 -30.939)" fill="#233447"/>
    <path id="Path_835" data-name="Path 835" d="M53.294,55.219l.9-1.9,2.187,1Z" transform="translate(-30.897 -30.939)" fill="#233447"/>
    <path id="Path_836" data-name="Path 836" d="M30.425,65.7l.536-4.417-3.409.1Z" transform="translate(-15.973 -35.553)" fill="#cc6228"/>
    <path id="Path_837" data-name="Path 837" d="M60.335,61.281l.536,4.417,2.884-4.321Z" transform="translate(-34.979 -35.553)" fill="#cc6228"/>
    <path id="Path_838" data-name="Path 838" d="M58.064,49.7l-6.122.279.568,3.141.9-1.9,2.187,1Z" transform="translate(-30.113 -28.838)" fill="#cc6228"/>
    <path id="Path_839" data-name="Path 839" d="M31.978,52.218l2.166-1,.9,1.9.568-3.141L29.491,49.7Z" transform="translate(-17.097 -28.838)" fill="#cc6228"/>
    <path id="Path_840" data-name="Path 840" d="M29.491,49.7l2.573,5.007-.086-2.487Z" transform="translate(-17.097 -28.838)" fill="#e27525"/>
    <path id="Path_841" data-name="Path 841" d="M60.493,52.218l-.107,2.487L62.959,49.7Z" transform="translate(-35.009 -28.838)" fill="#e27525"/>
    <path id="Path_842" data-name="Path 842" d="M43.275,50.362,42.706,53.5l.718,3.71.15-4.889Z" transform="translate(-24.759 -29.223)" fill="#e27525"/>
    <path id="Path_843" data-name="Path 843" d="M51.542,50.362l-.289,1.951.139,4.9.718-3.71Z" transform="translate(-29.714 -29.223)" fill="#e27525"/>
    <path id="Path_844" data-name="Path 844" d="M52.3,56.595l-.718,3.71.525.365,3.174-2.487.107-2.487Z" transform="translate(-29.906 -32.314)" fill="#f5841f"/>
    <path id="Path_845" data-name="Path 845" d="M35.41,55.694l.086,2.487,3.174,2.487.525-.365-.718-3.71Z" transform="translate(-20.529 -32.314)" fill="#f5841f"/>
    <path id="Path_846" data-name="Path 846" d="M42.4,73.411,42.43,72.4l-.268-.236H38.056L37.8,72.4l.021,1.008-3.431-1.619,1.2.986,2.434,1.683h4.171l2.434-1.683,1.2-.986Z" transform="translate(-19.937 -41.647)" fill="#c0ac9d"/>
    <path id="Path_847" data-name="Path 847" d="M46.844,67.029l-.525-.365H43.306l-.525.365-.279,2.4.257-.236h4.106l.268.236Z" transform="translate(-24.64 -38.674)" fill="#161616"/>
    <path id="Path_848" data-name="Path 848" d="M63.76,25.482l.911-4.439-1.362-4.128L52.834,24.689,56.866,28.1l5.682,1.662L63.8,28.291l-.547-.4.879-.793-.665-.525.868-.654Z" transform="translate(-30.631 -9.833)" fill="#763e1a"/>
    <path id="Path_849" data-name="Path 849" d="M15,21.043l.922,4.439-.59.44.868.654-.665.525.879.793-.547.4,1.254,1.469L22.816,28.1l4.021-3.409L16.372,16.916Z" transform="translate(-8.696 -9.833)" fill="#763e1a"/>
    <path id="Path_850" data-name="Path 850" d="M66.926,45.187l-5.682-1.662,1.715,2.595-2.573,5.007,3.4-.043h5.05Z" transform="translate(-35.009 -25.259)" fill="#f5841f"/>
    <path id="Path_851" data-name="Path 851" d="M23.127,43.525l-5.693,1.662-1.9,5.9h5.05l3.388.043L21.4,46.12Z" transform="translate(-9.007 -25.259)" fill="#f5841f"/>
    <path id="Path_852" data-name="Path 852" d="M44.591,35.527l.375-6.283,1.64-4.471H39.262l1.64,4.471.375,6.283.139,1.973.011,4.878H44.44l.011-4.878Z" transform="translate(-22.762 -14.388)" fill="#f5841f"/>
  </g>
</svg>
