<svg xmlns="http://www.w3.org/2000/svg" width="131.444" height="131.444" viewBox="0 0 131.444 131.444">
  <g id="Group_475" data-name="Group 475" transform="translate(-425 -6110)">
    <ellipse id="Ellipse_91" data-name="Ellipse 91" cx="61.5" cy="61" rx="61.5" ry="61" transform="translate(429 6115)" fill="#fff"/>
    <g id="reddit" transform="translate(425 6110)">
      <path id="Path_868" data-name="Path 868" d="M221.213,341.834c-2.944,2.944-9.253,4-13.749,4s-10.8-1.051-13.749-4a1.775,1.775,0,1,0-2.51,2.51c4.666,4.666,13.631,5.034,16.259,5.034s11.58-.368,16.26-5.034a1.794,1.794,0,0,0,0-2.51,1.769,1.769,0,0,0-2.511,0Zm0,0" transform="translate(-141.73 -253.688)" fill="#1f2226"/>
      <path id="Path_869" data-name="Path 869" d="M184.345,262.848A6.848,6.848,0,1,0,177.5,269.7a6.848,6.848,0,0,0,6.845-6.852Zm0,0" transform="translate(-126.839 -190.278)" fill="#5a577e"/>
      <path id="Path_870" data-name="Path 870" d="M65.722,0a65.719,65.719,0,1,0,.007,0Zm38.132,74.488a19.067,19.067,0,0,1,.224,2.879c0,14.748-17.166,26.7-38.342,26.7s-38.342-11.949-38.342-26.7a19.282,19.282,0,0,1,.224-2.9,9.578,9.578,0,1,1,10.54-15.654c6.651-4.8,15.853-7.861,26.092-8.124,0-.131,4.785-22.924,4.785-22.924a1.687,1.687,0,0,1,.736-1.077,1.708,1.708,0,0,1,1.289-.237l15.93,3.391a6.846,6.846,0,1,1-.7,3.352L72.03,30.153,67.667,50.7c10.055.354,19.086,3.4,25.631,8.136a9.583,9.583,0,1,1,10.555,15.652Zm0,0" fill="#5a577e"/>
      <path id="Path_871" data-name="Path 871" d="M294.848,256a6.848,6.848,0,1,0,6.848,6.848A6.848,6.848,0,0,0,294.848,256Zm0,0" transform="translate(-214.063 -190.278)" fill="#5a577e"/>
    </g>
  </g>
</svg>
