<svg xmlns="http://www.w3.org/2000/svg" width="24" height="24" viewBox="0 0 24 24">
  <g id="Group_772" data-name="Group 772" transform="translate(-430 -1363)">
    <circle id="Ellipse_132" data-name="Ellipse 132" cx="12" cy="12" r="12" transform="translate(430 1363)" fill="#5a577e"/>
    <path id="bxl-twitter" d="M12.649,6.421c.008.106.008.211.008.316a6.874,6.874,0,0,1-6.921,6.921A6.873,6.873,0,0,1,2,12.566a5.083,5.083,0,0,0,.588.03,4.873,4.873,0,0,0,3.02-1.039A2.437,2.437,0,0,1,3.333,9.87a3.1,3.1,0,0,0,.46.037,2.588,2.588,0,0,0,.641-.083A2.432,2.432,0,0,1,2.483,7.438v-.03a2.455,2.455,0,0,0,1.1.309,2.436,2.436,0,0,1-.754-3.253A6.919,6.919,0,0,0,7.844,7.009a2.764,2.764,0,0,1-.06-.557,2.435,2.435,0,0,1,4.21-1.664A4.8,4.8,0,0,0,13.537,4.2a2.428,2.428,0,0,1-1.07,1.341,4.875,4.875,0,0,0,1.4-.377,5.221,5.221,0,0,1-1.219,1.258Z" transform="translate(434.237 1366.215)" fill="#fefdff"/>
  </g>
</svg>
