<svg xmlns="http://www.w3.org/2000/svg" xmlns:xlink="http://www.w3.org/1999/xlink" width="607" height="543" viewBox="0 0 607 543">
  <defs>
    <filter id="Rectangle_36" x="0" y="182" width="373" height="361" filterUnits="userSpaceOnUse">
      <feOffset dy="5" input="SourceAlpha"/>
      <feGaussianBlur stdDeviation="10" result="blur"/>
      <feFlood flood-opacity="0.169"/>
      <feComposite operator="in" in2="blur"/>
      <feComposite in="SourceGraphic"/>
    </filter>
    <filter id="Rectangle_34" x="189" y="0" width="308" height="302" filterUnits="userSpaceOnUse">
      <feOffset input="SourceAlpha"/>
      <feGaussianBlur stdDeviation="10" result="blur-2"/>
      <feFlood flood-opacity="0.169"/>
      <feComposite operator="in" in2="blur-2"/>
      <feComposite in="SourceGraphic"/>
    </filter>
    <filter id="Rectangle_35" x="240" y="152" width="367" height="364" filterUnits="userSpaceOnUse">
      <feOffset input="SourceAlpha"/>
      <feGaussianBlur stdDeviation="25" result="blur-3"/>
      <feFlood flood-color="#848484" flood-opacity="0.475"/>
      <feComposite operator="in" in2="blur-3"/>
      <feComposite in="SourceGraphic"/>
    </filter>
    <filter id="Path_792" x="113.054" y="247.447" width="146.529" height="105.589" filterUnits="userSpaceOnUse">
      <feOffset dy="3" input="SourceAlpha"/>
      <feGaussianBlur stdDeviation="3" result="blur-4"/>
      <feFlood flood-opacity="0.161"/>
      <feComposite operator="in" in2="blur-4"/>
      <feComposite in="SourceGraphic"/>
    </filter>
    <filter id="Path_793" x="113.054" y="367.623" width="146.529" height="105.589" filterUnits="userSpaceOnUse">
      <feOffset dy="3" input="SourceAlpha"/>
      <feGaussianBlur stdDeviation="3" result="blur-5"/>
      <feFlood flood-opacity="0.161"/>
      <feComposite operator="in" in2="blur-5"/>
      <feComposite in="SourceGraphic"/>
    </filter>
    <filter id="Rectangle_129" x="233.622" y="327.071" width="68.527" height="68.527" filterUnits="userSpaceOnUse">
      <feOffset dy="3" input="SourceAlpha"/>
      <feGaussianBlur stdDeviation="3" result="blur-6"/>
      <feFlood flood-opacity="0.161"/>
      <feComposite operator="in" in2="blur-6"/>
      <feComposite in="SourceGraphic"/>
    </filter>
    <filter id="Rectangle_130" x="152.422" y="327.071" width="68.527" height="68.527" filterUnits="userSpaceOnUse">
      <feOffset dy="3" input="SourceAlpha"/>
      <feGaussianBlur stdDeviation="3" result="blur-7"/>
      <feFlood flood-opacity="0.161"/>
      <feComposite operator="in" in2="blur-7"/>
      <feComposite in="SourceGraphic"/>
    </filter>
    <filter id="Rectangle_131" x="71.222" y="327.071" width="68.527" height="68.527" filterUnits="userSpaceOnUse">
      <feOffset dy="3" input="SourceAlpha"/>
      <feGaussianBlur stdDeviation="3" result="blur-8"/>
      <feFlood flood-opacity="0.161"/>
      <feComposite operator="in" in2="blur-8"/>
      <feComposite in="SourceGraphic"/>
    </filter>
  </defs>
  <g id="Group_766" data-name="Group 766" transform="translate(-1022 -156)">
    <g id="Group_15" data-name="Group 15" transform="translate(-29)">
      <g transform="matrix(1, 0, 0, 1, 1051, 156)" filter="url(#Rectangle_36)">
        <rect id="Rectangle_36-2" data-name="Rectangle 36" width="313" height="301" rx="21" transform="translate(30 207)" fill="#fff"/>
      </g>
    </g>
    <g transform="matrix(1, 0, 0, 1, 1022, 156)" filter="url(#Rectangle_34)">
      <rect id="Rectangle_34-2" data-name="Rectangle 34" width="248" height="242" rx="21" transform="translate(219 30)" fill="#fff"/>
    </g>
    <g id="Group_16" data-name="Group 16" transform="translate(-28 8)">
      <g transform="matrix(1, 0, 0, 1, 1050, 148)" filter="url(#Rectangle_35)">
        <rect id="Rectangle_35-2" data-name="Rectangle 35" width="217" height="214" rx="21" transform="translate(315 227)" fill="#fff"/>
      </g>
      <g id="Group_14" data-name="Group 14" transform="translate(1383.059 429.177)">
        <g id="Group_13" data-name="Group 13" transform="translate(10.835 0)">
          <rect id="Rectangle_1" data-name="Rectangle 1" width="10" height="62" transform="translate(0.105 42.823)" fill="#fbbb23"/>
          <rect id="Rectangle_4" data-name="Rectangle 4" width="12" height="62" transform="translate(126.105 42.823)" fill="#fbbb23"/>
          <rect id="Rectangle_5" data-name="Rectangle 5" width="11" height="69" transform="translate(149.105 -0.177)" fill="#fbbb23"/>
          <rect id="Rectangle_6" data-name="Rectangle 6" width="12" height="69" transform="translate(63.105 -0.177)" fill="#fbbb23"/>
          <rect id="Rectangle_7" data-name="Rectangle 7" width="13" height="26" transform="translate(42.105 42.823)" fill="#fbbb23"/>
          <rect id="Rectangle_8" data-name="Rectangle 8" width="11" height="26" transform="translate(107.105 42.823)" fill="#fbbb23"/>
          <rect id="Rectangle_2" data-name="Rectangle 2" width="12" height="105" transform="translate(21.105 -0.177)" fill="#fbbb23"/>
          <rect id="Rectangle_3" data-name="Rectangle 3" width="11" height="105" transform="translate(86.105 -0.177)" fill="#fbbb23"/>
        </g>
      </g>
    </g>
    <g id="ethereum" transform="translate(1324.469 207.282)">
      <g id="bxs-shopping-bags" transform="translate(-28.469 15.718)">
        <path id="Path_961" data-name="Path 961" d="M16.766,134.891H31.531V61.063a7.383,7.383,0,0,1,7.383-7.383h88.594V38.914a7.383,7.383,0,0,0-7.383-7.383H97.6a33.032,33.032,0,0,0-65.692,0H9.383A7.383,7.383,0,0,0,2,38.914v81.211a14.766,14.766,0,0,0,14.766,14.766ZM64.754,16.766A18.489,18.489,0,0,1,82.842,31.531H46.666A18.489,18.489,0,0,1,64.754,16.766Z" fill="#3f3d56"/>
        <path id="Path_962" data-name="Path 962" d="M103.977,11H15.383A7.383,7.383,0,0,0,8,18.383V77.445A14.766,14.766,0,0,0,22.766,92.211H96.594a14.766,14.766,0,0,0,14.766-14.766V18.383A7.383,7.383,0,0,0,103.977,11ZM59.68,62.68A36.956,36.956,0,0,1,22.766,25.766H37.531a22.148,22.148,0,1,0,44.3,0H96.594A36.956,36.956,0,0,1,59.68,62.68Z" transform="translate(38.297 57.445)" fill="#3f3d56"/>
      </g>
    </g>
    <g id="Group_630" data-name="Group 630" transform="translate(359 -5807.553)">
      <g transform="matrix(1, 0, 0, 1, 663, 5963.55)" filter="url(#Path_792)">
        <path id="Path_792-2" data-name="Path 792" d="M337.366,6238l64.264,64.263L378.3,6325.589l-40.939-40.937-40.938,40.937L273.1,6302.263Z" transform="translate(-151.05 -5984.55)" fill="#3f3d56"/>
      </g>
      <g transform="matrix(1, 0, 0, 1, 663, 5963.55)" filter="url(#Path_793)">
        <path id="Path_793-2" data-name="Path 793" d="M337.366,6325.589l64.264-64.264L378.3,6238l-40.939,40.938L296.427,6238,273.1,6261.325Z" transform="translate(-151.05 -5864.38)" fill="#3f3d56"/>
      </g>
      <g transform="matrix(1, 0, 0, 1, 663, 5963.55)" filter="url(#Rectangle_129)">
        <rect id="Rectangle_129-2" data-name="Rectangle 129" width="35.728" height="35.728" transform="translate(267.89 333.07) rotate(45)" fill="#3f3d56"/>
      </g>
      <g transform="matrix(1, 0, 0, 1, 663, 5963.55)" filter="url(#Rectangle_130)">
        <rect id="Rectangle_130-2" data-name="Rectangle 130" width="35.728" height="35.728" transform="translate(186.69 333.07) rotate(45)" fill="#3f3d56"/>
      </g>
      <g transform="matrix(1, 0, 0, 1, 663, 5963.55)" filter="url(#Rectangle_131)">
        <rect id="Rectangle_131-2" data-name="Rectangle 131" width="35.728" height="35.728" transform="translate(105.49 333.07) rotate(45)" fill="#3f3d56"/>
      </g>
    </g>
  </g>
</svg>
